# xmcd
#
# Track frame offsets:
#	183
#	13395
#	24808
#	36945
#	47508
#	73570
#	88233
#	105483
#	118508
#	133408
#	152320
#	162758
#	173920
#	183108
#	203033
#	219145
#	232483
#	242258
#	254058
#	267070
#	289220
#
# Disc length: 4081 seconds
#
# Revision: 4
# Processed by: cddbd v1.5.2PL0 Copyright (c) Steve Scherf et al.
# Submitted via: audiograbber 1.83.01
#
DISCID=200fef15
DTITLE=Various Artist - Hits Of..... 67 and 68 
DYEAR=1967
DGENRE=Oldies
TTITLE0=Honeybus - I Can't Let Maggie Go
TTITLE1=Warm Sounds - Birds And Bees
TTITLE2=Marbles - Only One Woman
TTITLE3=Bee Gees - Massachusettes
TTITLE4=Barry Ryan - Eloise
TTITLE5=Herd - From The Underworld
TTITLE6=Scott Walker - Joanna
TTITLE7=Dusty Springfield - Wishin' And Hopin'
TTITLE8=Engelbert Humperdinck - Release Me
TTITLE9=Tom Jones - (It Looks Like) I'll Never Fall In Love Again
TTITLE10=Whistling Jack Smith - I Was Kaiser Bill's Batman
TTITLE11=Ester and Abi Ofarim - Cinderela Rockefella
TTITLE12=Tim Hardin - How Can We Hang On To A Dream
TTITLE13=Moody Blues - Nights In White Satin 
TTITLE14=Dave Dee, Dozy, Beaky, Mick and Tich - The Legend Of Xanadu
TTITLE15=David Bowie - The Laughing Gnome
TTITLE16=Cat Stevens - I'm Gonna Get Me A Gun
TTITLE17=Amen Corner - Bend Me , Shape Me
TTITLE18=Arthur Brown - Fire
TTITLE19=Cream - White Room
TTITLE20=Blue Cheer - Summertime Blues
EXTD=
EXTT0=
EXTT1=
EXTT2=
EXTT3=
EXTT4=
EXTT5=
EXTT6=
EXTT7=
EXTT8=
EXTT9=
EXTT10=
EXTT11=
EXTT12=
EXTT13=
EXTT14=
EXTT15=
EXTT16=
EXTT17=
EXTT18=
EXTT19=
EXTT20=
PLAYORDER=
